<?xml version="1.0" standalone="no"?>
<!DOCTYPE svg PUBLIC "-//W3C//DTD SVG 20010904//EN"
 "http://www.w3.org/TR/2001/REC-SVG-20010904/DTD/svg10.dtd">
<svg version="1.0" xmlns="http://www.w3.org/2000/svg"
 width="3596.000000pt" height="1382.000000pt" viewBox="0 0 3596.000000 1382.000000"
 preserveAspectRatio="xMidYMid meet">
<metadata>
Created by potrace 1.16, written by Peter Selinger 2001-2019
</metadata>
<g transform="translate(0.000000,1382.000000) scale(0.100000,-0.100000)"
fill="#000000" stroke="none">
<path d="M5420 13563 c-1585 -1735 -2437 -2778 -3153 -3858 -992 -1497 -1566
-2933 -1714 -4285 -26 -234 -25 -812 0 -1020 62 -502 189 -916 394 -1285 256
-461 652 -901 1079 -1201 982 -688 2372 -894 4109 -609 1062 175 2202 512
3514 1039 369 148 26311 11246 26311 11256 0 3 -5721 -1516 -12712 -3377
-6992 -1861 -12839 -3415 -12993 -3454 -593 -149 -1175 -248 -1765 -301 -231
-21 -962 -17 -1175 5 -689 74 -1231 249 -1659 537 -518 348 -933 866 -1141
1425 -150 403 -215 788 -215 1275 0 249 8 379 40 630 110 881 476 1937 1021
2945 77 142 243 429 297 513 41 64 -26 -3 -238 -235z"/>
</g>
</svg>
